<svg width="53" height="36" viewBox="0 0 53 36" fill="none" xmlns="http://www.w3.org/2000/svg">
<g clip-path="url(#clip0)">
<path d="M34.358 3.36552C37.1734 1.18621 40.4261 0 43.5148 0C44.1434 0 44.7721 0.0551724 45.3735 0.137931C50.8949 1.04828 53.9289 5.82069 52.7535 11.7517C51.6055 17.5724 46.4668 22.869 40.5354 24.331C39.8521 24.4966 39.196 24.5793 38.4854 24.6897C38.2667 24.7172 38.048 24.7448 37.8294 24.8L37.7747 36L35.2053 32.7724C34.4127 31.7793 33.7566 30.7586 33.21 29.8759C31.1053 26.5103 29.4653 22.6759 28.2352 18.1517C27.8252 16.7172 27.7706 15.1172 28.0439 13.4345C28.6452 9.65517 30.9686 5.95862 34.358 3.36552Z" fill="#DEE1F3"/>
<path d="M6.50446 3.36552C9.2925 1.18621 12.5452 0 15.6339 0C16.2626 0 16.8913 0.0551724 17.4926 0.137931C23.014 1.04828 26.048 5.82069 24.8727 11.7517C23.7247 17.5724 18.5859 22.869 12.6545 24.331C11.9712 24.4966 11.3152 24.5793 10.6045 24.6897C10.3858 24.7172 10.1672 24.7448 9.9485 24.8L9.89384 36L7.32447 32.7724C6.53179 31.7793 5.87579 30.7586 5.32911 29.8759C3.22442 26.5103 1.5844 22.6759 0.354384 18.1517C-0.0556208 16.7172 -0.110288 15.1172 0.163049 13.4345C0.791723 9.65517 3.08775 5.95862 6.50446 3.36552Z" fill="#DEE1F3"/>
</g>
<defs>
<clipPath id="clip0">
<rect width="53" height="36" fill="white"/>
</clipPath>
</defs>
</svg>
